<mxfile host="65bd71144e">
    <diagram id="RUjKlfgVhx5k1UMAfKOZ" name="online_quiz">
        <mxGraphModel dx="2248" dy="1195" grid="0" gridSize="10" guides="1" tooltips="1" connect="1" arrows="1" fold="1" page="1" pageScale="1" pageWidth="850" pageHeight="1100" background="#FFFFFF" math="0" shadow="0">
            <root>
                <mxCell id="C4qnHMWBIooDFFFDsQyA-0"/>
                <mxCell id="C4qnHMWBIooDFFFDsQyA-1" parent="C4qnHMWBIooDFFFDsQyA-0"/>
                <mxCell id="rB2cyhSKh2azLdcmqc3o-0" value="user" style="swimlane;fontStyle=0;childLayout=stackLayout;horizontal=1;startSize=26;fillColor=#0050ef;horizontalStack=0;resizeParent=1;resizeParentMax=0;resizeLast=0;collapsible=1;marginBottom=0;fontColor=#FFFFFF;strokeColor=#001DBC;fontSize=15;" parent="C4qnHMWBIooDFFFDsQyA-1" vertex="1">
                    <mxGeometry x="-276" y="120" width="194" height="312" as="geometry"/>
                </mxCell>
                <mxCell id="rB2cyhSKh2azLdcmqc3o-1" value="+ user_id: int" style="text;strokeColor=#36393d;fillColor=#FFFF33;align=left;verticalAlign=top;spacingLeft=4;spacingRight=4;overflow=hidden;rotatable=0;points=[[0,0.5],[1,0.5]];portConstraint=eastwest;fontStyle=4;fontColor=#000000;" parent="rB2cyhSKh2azLdcmqc3o-0" vertex="1">
                    <mxGeometry y="26" width="194" height="26" as="geometry"/>
                </mxCell>
                <mxCell id="rB2cyhSKh2azLdcmqc3o-2" value="+ first_name: varchar" style="text;strokeColor=#001DBC;fillColor=none;align=left;verticalAlign=top;spacingLeft=4;spacingRight=4;overflow=hidden;rotatable=0;points=[[0,0.5],[1,0.5]];portConstraint=eastwest;fontColor=#000000;" parent="rB2cyhSKh2azLdcmqc3o-0" vertex="1">
                    <mxGeometry y="52" width="194" height="26" as="geometry"/>
                </mxCell>
                <mxCell id="rB2cyhSKh2azLdcmqc3o-3" value="+ last_name: varchar" style="text;strokeColor=#001DBC;fillColor=none;align=left;verticalAlign=top;spacingLeft=4;spacingRight=4;overflow=hidden;rotatable=0;points=[[0,0.5],[1,0.5]];portConstraint=eastwest;fontColor=#000000;" parent="rB2cyhSKh2azLdcmqc3o-0" vertex="1">
                    <mxGeometry y="78" width="194" height="26" as="geometry"/>
                </mxCell>
                <mxCell id="rB2cyhSKh2azLdcmqc3o-4" value="+ phone_number: int" style="text;strokeColor=#001DBC;fillColor=none;align=left;verticalAlign=top;spacingLeft=4;spacingRight=4;overflow=hidden;rotatable=0;points=[[0,0.5],[1,0.5]];portConstraint=eastwest;fontColor=#000000;" parent="rB2cyhSKh2azLdcmqc3o-0" vertex="1">
                    <mxGeometry y="104" width="194" height="26" as="geometry"/>
                </mxCell>
                <mxCell id="rB2cyhSKh2azLdcmqc3o-7" value="+ gender: enum('M','F')" style="text;strokeColor=#001DBC;fillColor=none;align=left;verticalAlign=top;spacingLeft=4;spacingRight=4;overflow=hidden;rotatable=0;points=[[0,0.5],[1,0.5]];portConstraint=eastwest;fontColor=#000000;" parent="rB2cyhSKh2azLdcmqc3o-0" vertex="1">
                    <mxGeometry y="130" width="194" height="26" as="geometry"/>
                </mxCell>
                <mxCell id="rB2cyhSKh2azLdcmqc3o-8" value="+ date_of_birth: datetime" style="text;strokeColor=#001DBC;fillColor=none;align=left;verticalAlign=top;spacingLeft=4;spacingRight=4;overflow=hidden;rotatable=0;points=[[0,0.5],[1,0.5]];portConstraint=eastwest;fontColor=#000000;" parent="rB2cyhSKh2azLdcmqc3o-0" vertex="1">
                    <mxGeometry y="156" width="194" height="26" as="geometry"/>
                </mxCell>
                <mxCell id="rB2cyhSKh2azLdcmqc3o-6" value="+ email: varchar" style="text;strokeColor=#001DBC;fillColor=none;align=left;verticalAlign=top;spacingLeft=4;spacingRight=4;overflow=hidden;rotatable=0;points=[[0,0.5],[1,0.5]];portConstraint=eastwest;fontColor=#000000;" parent="rB2cyhSKh2azLdcmqc3o-0" vertex="1">
                    <mxGeometry y="182" width="194" height="26" as="geometry"/>
                </mxCell>
                <mxCell id="rB2cyhSKh2azLdcmqc3o-9" value="+ register_time: datetime" style="text;strokeColor=#001DBC;fillColor=#FFFFFF;align=left;verticalAlign=top;spacingLeft=4;spacingRight=4;overflow=hidden;rotatable=0;points=[[0,0.5],[1,0.5]];portConstraint=eastwest;fontColor=#000000;" parent="rB2cyhSKh2azLdcmqc3o-0" vertex="1">
                    <mxGeometry y="208" width="194" height="26" as="geometry"/>
                </mxCell>
                <mxCell id="r8kKitoGFGKjj6rItY_z-0" value="+ password: varchar" style="text;strokeColor=#001DBC;fillColor=#FFFFFF;align=left;verticalAlign=top;spacingLeft=4;spacingRight=4;overflow=hidden;rotatable=0;points=[[0,0.5],[1,0.5]];portConstraint=eastwest;fontColor=#000000;" parent="rB2cyhSKh2azLdcmqc3o-0" vertex="1">
                    <mxGeometry y="234" width="194" height="26" as="geometry"/>
                </mxCell>
                <mxCell id="lI63I3BfCR0O2mlrjxEN-17" value="+ total_correct_answers: int&#10;" style="text;strokeColor=#001DBC;fillColor=#FFFFFF;align=left;verticalAlign=top;spacingLeft=4;spacingRight=4;overflow=hidden;rotatable=0;points=[[0,0.5],[1,0.5]];portConstraint=eastwest;fontColor=#000000;" parent="rB2cyhSKh2azLdcmqc3o-0" vertex="1">
                    <mxGeometry y="260" width="194" height="26" as="geometry"/>
                </mxCell>
                <mxCell id="lI63I3BfCR0O2mlrjxEN-18" value="+ total_incorrect_answers: int&#10;" style="text;strokeColor=#001DBC;fillColor=#FFFFFF;align=left;verticalAlign=top;spacingLeft=4;spacingRight=4;overflow=hidden;rotatable=0;points=[[0,0.5],[1,0.5]];portConstraint=eastwest;fontColor=#000000;" parent="rB2cyhSKh2azLdcmqc3o-0" vertex="1">
                    <mxGeometry y="286" width="194" height="26" as="geometry"/>
                </mxCell>
                <mxCell id="r8kKitoGFGKjj6rItY_z-1" value="quiz_question" style="swimlane;fontStyle=0;childLayout=stackLayout;horizontal=1;startSize=26;fillColor=#0050ef;horizontalStack=0;resizeParent=1;resizeParentMax=0;resizeLast=0;collapsible=1;marginBottom=0;fontColor=#FFFFFF;strokeColor=#001DBC;fontSize=15;" parent="C4qnHMWBIooDFFFDsQyA-1" vertex="1">
                    <mxGeometry x="322" y="239" width="194" height="104" as="geometry"/>
                </mxCell>
                <mxCell id="r8kKitoGFGKjj6rItY_z-2" value="+ quiz_question_id: int" style="text;strokeColor=#36393d;fillColor=#FFFF33;align=left;verticalAlign=top;spacingLeft=4;spacingRight=4;overflow=hidden;rotatable=0;points=[[0,0.5],[1,0.5]];portConstraint=eastwest;fontStyle=4;fontColor=#000000;" parent="r8kKitoGFGKjj6rItY_z-1" vertex="1">
                    <mxGeometry y="26" width="194" height="26" as="geometry"/>
                </mxCell>
                <mxCell id="r8kKitoGFGKjj6rItY_z-3" value="+ question: varchar" style="text;strokeColor=#001DBC;fillColor=none;align=left;verticalAlign=top;spacingLeft=4;spacingRight=4;overflow=hidden;rotatable=0;points=[[0,0.5],[1,0.5]];portConstraint=eastwest;fontColor=#000000;" parent="r8kKitoGFGKjj6rItY_z-1" vertex="1">
                    <mxGeometry y="52" width="194" height="26" as="geometry"/>
                </mxCell>
                <mxCell id="r8kKitoGFGKjj6rItY_z-4" value="+ is_active: enum('Y' ,'N')" style="text;strokeColor=#001DBC;fillColor=none;align=left;verticalAlign=top;spacingLeft=4;spacingRight=4;overflow=hidden;rotatable=0;points=[[0,0.5],[1,0.5]];portConstraint=eastwest;fontColor=#000000;" parent="r8kKitoGFGKjj6rItY_z-1" vertex="1">
                    <mxGeometry y="78" width="194" height="26" as="geometry"/>
                </mxCell>
                <mxCell id="r8kKitoGFGKjj6rItY_z-21" value="user_answer" style="swimlane;fontStyle=0;childLayout=stackLayout;horizontal=1;startSize=26;fillColor=#0050ef;horizontalStack=0;resizeParent=1;resizeParentMax=0;resizeLast=0;collapsible=1;marginBottom=0;fontColor=#FFFFFF;strokeColor=#001DBC;fontSize=15;" parent="C4qnHMWBIooDFFFDsQyA-1" vertex="1">
                    <mxGeometry x="-264" y="520" width="194" height="182" as="geometry"/>
                </mxCell>
                <mxCell id="r8kKitoGFGKjj6rItY_z-23" value="+ user_answer_id: int" style="text;strokeColor=#001DBC;fillColor=#FFFF33;align=left;verticalAlign=top;spacingLeft=4;spacingRight=4;overflow=hidden;rotatable=0;points=[[0,0.5],[1,0.5]];portConstraint=eastwest;fontColor=#000000;fontStyle=4" parent="r8kKitoGFGKjj6rItY_z-21" vertex="1">
                    <mxGeometry y="26" width="194" height="26" as="geometry"/>
                </mxCell>
                <mxCell id="r8kKitoGFGKjj6rItY_z-24" value="+ is_right: enum('Y' ,'N')" style="text;strokeColor=#001DBC;fillColor=none;align=left;verticalAlign=top;spacingLeft=4;spacingRight=4;overflow=hidden;rotatable=0;points=[[0,0.5],[1,0.5]];portConstraint=eastwest;fontColor=#000000;" parent="r8kKitoGFGKjj6rItY_z-21" vertex="1">
                    <mxGeometry y="52" width="194" height="26" as="geometry"/>
                </mxCell>
                <mxCell id="r8kKitoGFGKjj6rItY_z-25" value="+ answer_time: datetime" style="text;strokeColor=#001DBC;fillColor=none;align=left;verticalAlign=top;spacingLeft=4;spacingRight=4;overflow=hidden;rotatable=0;points=[[0,0.5],[1,0.5]];portConstraint=eastwest;fontColor=#000000;" parent="r8kKitoGFGKjj6rItY_z-21" vertex="1">
                    <mxGeometry y="78" width="194" height="26" as="geometry"/>
                </mxCell>
                <mxCell id="r8kKitoGFGKjj6rItY_z-26" value="+ fk_quiz_question_id: int" style="text;strokeColor=#36393d;fillColor=#FFFFFF;align=left;verticalAlign=top;spacingLeft=4;spacingRight=4;overflow=hidden;rotatable=0;points=[[0,0.5],[1,0.5]];portConstraint=eastwest;fontStyle=4;fontColor=#000000;" parent="r8kKitoGFGKjj6rItY_z-21" vertex="1">
                    <mxGeometry y="104" width="194" height="26" as="geometry"/>
                </mxCell>
                <mxCell id="r8kKitoGFGKjj6rItY_z-22" value="+ fk_user_id: int" style="text;strokeColor=#36393d;fillColor=#FFFFFF;align=left;verticalAlign=top;spacingLeft=4;spacingRight=4;overflow=hidden;rotatable=0;points=[[0,0.5],[1,0.5]];portConstraint=eastwest;fontStyle=4;fontColor=#000000;" parent="r8kKitoGFGKjj6rItY_z-21" vertex="1">
                    <mxGeometry y="130" width="194" height="26" as="geometry"/>
                </mxCell>
                <mxCell id="lI63I3BfCR0O2mlrjxEN-31" value="+ fk_quiz_answer_id: int" style="text;strokeColor=#36393d;fillColor=#FFFFFF;align=left;verticalAlign=top;spacingLeft=4;spacingRight=4;overflow=hidden;rotatable=0;points=[[0,0.5],[1,0.5]];portConstraint=eastwest;fontStyle=4;fontColor=#000000;" parent="r8kKitoGFGKjj6rItY_z-21" vertex="1">
                    <mxGeometry y="156" width="194" height="26" as="geometry"/>
                </mxCell>
                <mxCell id="lI63I3BfCR0O2mlrjxEN-5" style="edgeStyle=orthogonalEdgeStyle;html=1;exitX=0;exitY=0.5;exitDx=0;exitDy=0;fontSize=20;fontColor=#FFFF33;strokeColor=#000000;endArrow=ERone;endFill=0;startArrow=ERmany;startFill=0;entryX=0;entryY=0.5;entryDx=0;entryDy=0;" parent="C4qnHMWBIooDFFFDsQyA-1" source="r8kKitoGFGKjj6rItY_z-22" target="rB2cyhSKh2azLdcmqc3o-1" edge="1">
                    <mxGeometry relative="1" as="geometry">
                        <mxPoint x="-306" y="234" as="targetPoint"/>
                        <Array as="points">
                            <mxPoint x="-344" y="662"/>
                            <mxPoint x="-344" y="159"/>
                        </Array>
                    </mxGeometry>
                </mxCell>
                <mxCell id="lI63I3BfCR0O2mlrjxEN-12" value="quiz" style="swimlane;fontStyle=0;childLayout=stackLayout;horizontal=1;startSize=26;fillColor=#0050ef;horizontalStack=0;resizeParent=1;resizeParentMax=0;resizeLast=0;collapsible=1;marginBottom=0;fontColor=#FFFFFF;strokeColor=#001DBC;fontSize=15;" parent="C4qnHMWBIooDFFFDsQyA-1" vertex="1">
                    <mxGeometry y="134" width="194" height="156" as="geometry"/>
                </mxCell>
                <mxCell id="lI63I3BfCR0O2mlrjxEN-13" value="+ quiz_id: int" style="text;strokeColor=#36393d;fillColor=#FFFF33;align=left;verticalAlign=top;spacingLeft=4;spacingRight=4;overflow=hidden;rotatable=0;points=[[0,0.5],[1,0.5]];portConstraint=eastwest;fontStyle=4;fontColor=#000000;" parent="lI63I3BfCR0O2mlrjxEN-12" vertex="1">
                    <mxGeometry y="26" width="194" height="26" as="geometry"/>
                </mxCell>
                <mxCell id="lI63I3BfCR0O2mlrjxEN-14" value="+ title: varchar" style="text;strokeColor=#001DBC;fillColor=none;align=left;verticalAlign=top;spacingLeft=4;spacingRight=4;overflow=hidden;rotatable=0;points=[[0,0.5],[1,0.5]];portConstraint=eastwest;fontColor=#000000;" parent="lI63I3BfCR0O2mlrjxEN-12" vertex="1">
                    <mxGeometry y="52" width="194" height="26" as="geometry"/>
                </mxCell>
                <mxCell id="lI63I3BfCR0O2mlrjxEN-23" value="+ type: varchar" style="text;strokeColor=#001DBC;fillColor=none;align=left;verticalAlign=top;spacingLeft=4;spacingRight=4;overflow=hidden;rotatable=0;points=[[0,0.5],[1,0.5]];portConstraint=eastwest;fontColor=#000000;" parent="lI63I3BfCR0O2mlrjxEN-12" vertex="1">
                    <mxGeometry y="78" width="194" height="26" as="geometry"/>
                </mxCell>
                <mxCell id="lI63I3BfCR0O2mlrjxEN-15" value="+ publish_at: datetime" style="text;strokeColor=#001DBC;fillColor=none;align=left;verticalAlign=top;spacingLeft=4;spacingRight=4;overflow=hidden;rotatable=0;points=[[0,0.5],[1,0.5]];portConstraint=eastwest;fontColor=#000000;" parent="lI63I3BfCR0O2mlrjxEN-12" vertex="1">
                    <mxGeometry y="104" width="194" height="26" as="geometry"/>
                </mxCell>
                <mxCell id="lI63I3BfCR0O2mlrjxEN-25" value="+ fk_question_question_id: int" style="text;strokeColor=#36393d;fillColor=#FFFFFF;align=left;verticalAlign=top;spacingLeft=4;spacingRight=4;overflow=hidden;rotatable=0;points=[[0,0.5],[1,0.5]];portConstraint=eastwest;fontStyle=0;fontColor=#000000;" parent="lI63I3BfCR0O2mlrjxEN-12" vertex="1">
                    <mxGeometry y="130" width="194" height="26" as="geometry"/>
                </mxCell>
                <mxCell id="lI63I3BfCR0O2mlrjxEN-19" value="quiz_answer" style="swimlane;fontStyle=0;childLayout=stackLayout;horizontal=1;startSize=26;fillColor=#0050ef;horizontalStack=0;resizeParent=1;resizeParentMax=0;resizeLast=0;collapsible=1;marginBottom=0;fontColor=#FFFFFF;strokeColor=#001DBC;fontSize=15;" parent="C4qnHMWBIooDFFFDsQyA-1" vertex="1">
                    <mxGeometry x="318" y="432" width="194" height="130" as="geometry"/>
                </mxCell>
                <mxCell id="lI63I3BfCR0O2mlrjxEN-20" value="+ quiz_answer_id: int" style="text;strokeColor=#36393d;fillColor=#FFFF33;align=left;verticalAlign=top;spacingLeft=4;spacingRight=4;overflow=hidden;rotatable=0;points=[[0,0.5],[1,0.5]];portConstraint=eastwest;fontStyle=4;fontColor=#000000;" parent="lI63I3BfCR0O2mlrjxEN-19" vertex="1">
                    <mxGeometry y="26" width="194" height="26" as="geometry"/>
                </mxCell>
                <mxCell id="lI63I3BfCR0O2mlrjxEN-21" value="+ answer: varchar" style="text;strokeColor=#001DBC;fillColor=none;align=left;verticalAlign=top;spacingLeft=4;spacingRight=4;overflow=hidden;rotatable=0;points=[[0,0.5],[1,0.5]];portConstraint=eastwest;fontColor=#000000;" parent="lI63I3BfCR0O2mlrjxEN-19" vertex="1">
                    <mxGeometry y="52" width="194" height="26" as="geometry"/>
                </mxCell>
                <mxCell id="lI63I3BfCR0O2mlrjxEN-27" value="+ is_right_answer: enum('Y' ,'N')" style="text;strokeColor=#001DBC;fillColor=none;align=left;verticalAlign=top;spacingLeft=4;spacingRight=4;overflow=hidden;rotatable=0;points=[[0,0.5],[1,0.5]];portConstraint=eastwest;fontColor=#000000;" parent="lI63I3BfCR0O2mlrjxEN-19" vertex="1">
                    <mxGeometry y="78" width="194" height="26" as="geometry"/>
                </mxCell>
                <mxCell id="lI63I3BfCR0O2mlrjxEN-28" value="+ fk_question_question_id: int" style="text;strokeColor=#001DBC;fillColor=none;align=left;verticalAlign=top;spacingLeft=4;spacingRight=4;overflow=hidden;rotatable=0;points=[[0,0.5],[1,0.5]];portConstraint=eastwest;fontColor=#000000;" parent="lI63I3BfCR0O2mlrjxEN-19" vertex="1">
                    <mxGeometry y="104" width="194" height="26" as="geometry"/>
                </mxCell>
                <mxCell id="lI63I3BfCR0O2mlrjxEN-24" style="edgeStyle=orthogonalEdgeStyle;html=1;exitX=0;exitY=0.5;exitDx=0;exitDy=0;entryX=1;entryY=0.5;entryDx=0;entryDy=0;fontSize=20;fontColor=#000000;startArrow=ERone;startFill=0;endArrow=ERmany;endFill=0;strokeColor=#000000;" parent="C4qnHMWBIooDFFFDsQyA-1" source="r8kKitoGFGKjj6rItY_z-2" target="lI63I3BfCR0O2mlrjxEN-25" edge="1">
                    <mxGeometry relative="1" as="geometry"/>
                </mxCell>
                <mxCell id="lI63I3BfCR0O2mlrjxEN-30" style="edgeStyle=orthogonalEdgeStyle;html=1;exitX=1;exitY=0.5;exitDx=0;exitDy=0;entryX=1;entryY=0.5;entryDx=0;entryDy=0;fontSize=20;fontColor=#000000;startArrow=ERone;startFill=0;endArrow=ERmany;endFill=0;strokeColor=#000000;" parent="C4qnHMWBIooDFFFDsQyA-1" source="r8kKitoGFGKjj6rItY_z-2" target="lI63I3BfCR0O2mlrjxEN-28" edge="1">
                    <mxGeometry relative="1" as="geometry">
                        <Array as="points">
                            <mxPoint x="630" y="278"/>
                            <mxPoint x="630" y="549"/>
                        </Array>
                    </mxGeometry>
                </mxCell>
                <mxCell id="lI63I3BfCR0O2mlrjxEN-32" style="edgeStyle=orthogonalEdgeStyle;html=1;exitX=0;exitY=0.5;exitDx=0;exitDy=0;entryX=1;entryY=0.5;entryDx=0;entryDy=0;fontSize=20;fontColor=#000000;startArrow=ERone;startFill=0;endArrow=ERmany;endFill=0;strokeColor=#000000;" parent="C4qnHMWBIooDFFFDsQyA-1" source="lI63I3BfCR0O2mlrjxEN-28" target="lI63I3BfCR0O2mlrjxEN-31" edge="1">
                    <mxGeometry relative="1" as="geometry">
                        <Array as="points">
                            <mxPoint x="124" y="549"/>
                            <mxPoint x="124" y="689"/>
                        </Array>
                    </mxGeometry>
                </mxCell>
                <mxCell id="lI63I3BfCR0O2mlrjxEN-34" style="edgeStyle=orthogonalEdgeStyle;html=1;exitX=1;exitY=0.5;exitDx=0;exitDy=0;fontSize=20;fontColor=#000000;startArrow=ERmany;startFill=0;endArrow=ERone;endFill=0;strokeColor=#000000;" parent="C4qnHMWBIooDFFFDsQyA-1" source="r8kKitoGFGKjj6rItY_z-26" edge="1">
                    <mxGeometry relative="1" as="geometry">
                        <mxPoint x="320.294117647059" y="278" as="targetPoint"/>
                        <Array as="points">
                            <mxPoint x="38" y="637"/>
                            <mxPoint x="38" y="497"/>
                            <mxPoint x="271" y="497"/>
                            <mxPoint x="271" y="278"/>
                        </Array>
                    </mxGeometry>
                </mxCell>
            </root>
        </mxGraphModel>
    </diagram>
    <diagram id="y_vQq0Q2F8uebJTC7amI" name="online_quiz(explain)">
        <mxGraphModel dx="559" dy="478" grid="0" gridSize="10" guides="1" tooltips="1" connect="1" arrows="1" fold="1" page="1" pageScale="1" pageWidth="850" pageHeight="1100" math="0" shadow="0">
            <root>
                <mxCell id="pDiQsStB4G3VnguCA53x-0"/>
                <mxCell id="pDiQsStB4G3VnguCA53x-1" parent="pDiQsStB4G3VnguCA53x-0"/>
                <mxCell id="21f-9kvgV1wOeFqo-DNS-2" value="&lt;h1 style=&quot;line-height: 1.2 ; font-size: 20px&quot;&gt;&lt;span style=&quot;font-weight: normal&quot;&gt;&lt;font color=&quot;#ffff33&quot; style=&quot;font-size: 20px&quot;&gt;user&lt;/font&gt;: for storing user information&lt;/span&gt;&lt;/h1&gt;&lt;div style=&quot;font-size: 20px&quot;&gt;&lt;font style=&quot;font-size: 20px&quot;&gt;&lt;font color=&quot;#ffff33&quot;&gt;quiz&lt;/font&gt;: for storing all the quizes&lt;/font&gt;&lt;/div&gt;&lt;div style=&quot;font-size: 20px&quot;&gt;&lt;font style=&quot;font-size: 20px&quot;&gt;&lt;br&gt;&lt;/font&gt;&lt;/div&gt;&lt;div style=&quot;font-size: 20px&quot;&gt;&lt;font style=&quot;font-size: 20px&quot;&gt;&lt;font color=&quot;#ffff33&quot;&gt;quiz_question&lt;/font&gt;:&lt;b&gt; &lt;font color=&quot;#0050ef&quot;&gt;is_active&lt;/font&gt;&lt;/b&gt;: display only active questions&lt;/font&gt;&lt;/div&gt;&lt;div style=&quot;font-size: 20px&quot;&gt;&lt;font style=&quot;font-size: 20px&quot;&gt;&lt;br&gt;&lt;/font&gt;&lt;/div&gt;&lt;div style=&quot;font-size: 20px&quot;&gt;&lt;font style=&quot;font-size: 20px&quot;&gt;&lt;font color=&quot;#ffff33&quot;&gt;quiz_answer&lt;/font&gt;: storing available answers.&lt;/font&gt;&lt;/div&gt;&lt;div style=&quot;font-size: 20px&quot;&gt;&lt;font style=&quot;font-size: 20px&quot;&gt;(is_right-answer: defines which one is the right answer for the question.)&lt;/font&gt;&lt;/div&gt;&lt;div style=&quot;font-size: 20px&quot;&gt;&lt;font style=&quot;font-size: 20px&quot;&gt;&lt;br&gt;&lt;/font&gt;&lt;/div&gt;&lt;div style=&quot;font-size: 20px&quot;&gt;&lt;font style=&quot;font-size: 20px&quot;&gt;&lt;span style=&quot;text-align: center&quot;&gt;&lt;font color=&quot;#ffff33&quot;&gt;user_answer&lt;/font&gt;&lt;/span&gt;&lt;span style=&quot;color: rgb(255 , 255 , 255) ; text-align: center&quot;&gt;: storing answer from the user.&lt;/span&gt;&lt;br&gt;&lt;/font&gt;&lt;/div&gt;&lt;div style=&quot;font-size: 20px&quot;&gt;&lt;font style=&quot;font-size: 20px&quot;&gt;&lt;span style=&quot;color: rgb(255 , 255 , 255) ; text-align: center&quot;&gt;(is_right: to chech if the answer is right. based on in_right_answer.)&lt;/span&gt;&lt;/font&gt;&lt;/div&gt;&lt;span style=&quot;font-size: 20px&quot;&gt;&lt;br&gt;&lt;br&gt;&lt;/span&gt;&lt;div style=&quot;font-size: 20px&quot;&gt;&lt;font style=&quot;font-size: 20px&quot;&gt;&lt;br&gt;&lt;/font&gt;&lt;/div&gt;&lt;div style=&quot;font-size: 20px&quot;&gt;&lt;font style=&quot;font-size: 20px&quot;&gt;&lt;br&gt;&lt;/font&gt;&lt;/div&gt;&lt;div style=&quot;font-size: 20px&quot;&gt;&lt;font style=&quot;font-size: 20px&quot;&gt;&lt;br&gt;&lt;/font&gt;&lt;/div&gt;&lt;div style=&quot;font-size: 20px&quot;&gt;&lt;br&gt;&lt;/div&gt;" style="text;html=1;strokeColor=none;fillColor=none;spacing=5;spacingTop=-20;whiteSpace=wrap;overflow=hidden;rounded=0;" parent="pDiQsStB4G3VnguCA53x-1" vertex="1">
                    <mxGeometry x="42" y="49" width="787" height="415" as="geometry"/>
                </mxCell>
            </root>
        </mxGraphModel>
    </diagram>
</mxfile>